<?xml version="1.0" encoding="UTF-8"?>
<svg xmlns="http://www.w3.org/2000/svg" version="1.1" width="300" height="300" viewBox="0 0 300 300"><rect x="0" y="0" width="300" height="300" fill="#ffffff"/><g transform="scale(14.286)"><g transform="translate(0,0)"><path fill-rule="evenodd" d="M9 0L9 1L8 1L8 2L9 2L9 3L8 3L8 4L9 4L9 3L10 3L10 2L9 2L9 1L10 1L10 0ZM12 0L12 1L11 1L11 2L12 2L12 1L13 1L13 0ZM11 3L11 4L10 4L10 5L8 5L8 7L9 7L9 6L10 6L10 8L6 8L6 9L5 9L5 8L0 8L0 11L3 11L3 12L2 12L2 13L3 13L3 12L5 12L5 13L8 13L8 15L10 15L10 14L11 14L11 16L12 16L12 17L13 17L13 18L11 18L11 17L10 17L10 18L9 18L9 16L8 16L8 21L11 21L11 20L12 20L12 21L16 21L16 20L13 20L13 18L14 18L14 19L16 19L16 18L17 18L17 20L19 20L19 21L20 21L20 20L19 20L19 17L21 17L21 15L20 15L20 13L21 13L21 11L18 11L18 12L17 12L17 11L16 11L16 10L21 10L21 9L20 9L20 8L19 8L19 9L18 9L18 8L17 8L17 9L16 9L16 8L15 8L15 9L14 9L14 8L13 8L13 4L12 4L12 3ZM11 4L11 7L12 7L12 4ZM10 8L10 9L9 9L9 10L8 10L8 11L5 11L5 10L3 10L3 9L2 9L2 10L3 10L3 11L5 11L5 12L8 12L8 13L9 13L9 12L8 12L8 11L9 11L9 10L10 10L10 13L11 13L11 14L13 14L13 15L12 15L12 16L13 16L13 17L14 17L14 18L16 18L16 17L17 17L17 16L18 16L18 17L19 17L19 16L20 16L20 15L19 15L19 14L18 14L18 15L17 15L17 14L15 14L15 13L17 13L17 12L15 12L15 10L16 10L16 9L15 9L15 10L14 10L14 9L12 9L12 8ZM6 9L6 10L7 10L7 9ZM11 9L11 10L12 10L12 12L11 12L11 13L13 13L13 14L14 14L14 13L15 13L15 12L13 12L13 11L14 11L14 10L12 10L12 9ZM0 12L0 13L1 13L1 12ZM18 12L18 13L19 13L19 12ZM13 15L13 16L14 16L14 17L15 17L15 16L14 16L14 15ZM18 15L18 16L19 16L19 15ZM10 18L10 19L9 19L9 20L10 20L10 19L11 19L11 18ZM0 0L0 7L7 7L7 0ZM1 1L1 6L6 6L6 1ZM2 2L2 5L5 5L5 2ZM14 0L14 7L21 7L21 0ZM15 1L15 6L20 6L20 1ZM16 2L16 5L19 5L19 2ZM0 14L0 21L7 21L7 14ZM1 15L1 20L6 20L6 15ZM2 16L2 19L5 19L5 16Z" fill="#000000"/></g></g></svg>
