<?xml version="1.0" encoding="UTF-8"?>
<svg xmlns="http://www.w3.org/2000/svg" version="1.1" width="300" height="300" viewBox="0 0 300 300"><rect x="0" y="0" width="300" height="300" fill="#ffffff"/><g transform="scale(14.286)"><g transform="translate(0,0)"><path fill-rule="evenodd" d="M8 0L8 4L9 4L9 5L8 5L8 7L9 7L9 5L10 5L10 7L11 7L11 8L12 8L12 7L13 7L13 2L12 2L12 1L13 1L13 0L12 0L12 1L11 1L11 2L10 2L10 1L9 1L9 0ZM9 3L9 4L10 4L10 3ZM11 3L11 7L12 7L12 3ZM0 8L0 9L1 9L1 10L2 10L2 11L1 11L1 13L4 13L4 12L5 12L5 13L7 13L7 12L5 12L5 11L4 11L4 10L5 10L5 9L7 9L7 8L4 8L4 10L2 10L2 8ZM15 8L15 9L14 9L14 10L13 10L13 11L12 11L12 9L11 9L11 12L10 12L10 13L9 13L9 12L8 12L8 14L10 14L10 15L8 15L8 17L9 17L9 19L8 19L8 21L9 21L9 19L10 19L10 21L13 21L13 19L12 19L12 17L13 17L13 15L15 15L15 16L17 16L17 17L14 17L14 18L15 18L15 19L16 19L16 20L15 20L15 21L16 21L16 20L17 20L17 18L18 18L18 19L19 19L19 18L21 18L21 17L18 17L18 15L20 15L20 16L21 16L21 15L20 15L20 14L21 14L21 13L20 13L20 14L19 14L19 13L18 13L18 11L19 11L19 12L21 12L21 11L19 11L19 9L21 9L21 8L17 8L17 9L16 9L16 8ZM9 9L9 11L10 11L10 9ZM15 9L15 10L14 10L14 13L15 13L15 15L16 15L16 13L17 13L17 11L16 11L16 9ZM6 10L6 11L7 11L7 10ZM2 11L2 12L3 12L3 11ZM15 11L15 13L16 13L16 11ZM10 13L10 14L11 14L11 13ZM12 13L12 15L10 15L10 16L9 16L9 17L10 17L10 18L11 18L11 17L12 17L12 15L13 15L13 13ZM17 14L17 15L18 15L18 14ZM10 16L10 17L11 17L11 16ZM20 20L20 21L21 21L21 20ZM0 0L0 7L7 7L7 0ZM1 1L1 6L6 6L6 1ZM2 2L2 5L5 5L5 2ZM14 0L14 7L21 7L21 0ZM15 1L15 6L20 6L20 1ZM16 2L16 5L19 5L19 2ZM0 14L0 21L7 21L7 14ZM1 15L1 20L6 20L6 15ZM2 16L2 19L5 19L5 16Z" fill="#000000"/></g></g></svg>
