<?xml version="1.0" encoding="UTF-8"?>
<svg xmlns="http://www.w3.org/2000/svg" version="1.1" width="300" height="300" viewBox="0 0 300 300"><rect x="0" y="0" width="300" height="300" fill="#ffffff"/><g transform="scale(14.286)"><g transform="translate(0,0)"><path fill-rule="evenodd" d="M9 0L9 3L8 3L8 5L9 5L9 4L10 4L10 7L9 7L9 6L8 6L8 7L9 7L9 10L12 10L12 13L13 13L13 14L11 14L11 13L10 13L10 14L11 14L11 15L9 15L9 13L8 13L8 12L6 12L6 13L8 13L8 16L9 16L9 19L8 19L8 21L9 21L9 20L10 20L10 21L15 21L15 20L13 20L13 19L15 19L15 18L14 18L14 17L15 17L15 16L17 16L17 17L16 17L16 19L17 19L17 20L19 20L19 21L20 21L20 20L19 20L19 19L21 19L21 18L19 18L19 17L21 17L21 16L19 16L19 15L20 15L20 13L17 13L17 11L16 11L16 9L17 9L17 10L20 10L20 9L18 9L18 8L16 8L16 9L14 9L14 10L12 10L12 9L13 9L13 8L12 8L12 9L10 9L10 8L11 8L11 4L12 4L12 7L13 7L13 4L12 4L12 3L10 3L10 1L11 1L11 2L12 2L12 1L13 1L13 0ZM0 8L0 11L1 11L1 12L2 12L2 13L3 13L3 12L4 12L4 13L5 13L5 12L4 12L4 11L8 11L8 10L4 10L4 9L3 9L3 10L2 10L2 11L1 11L1 9L2 9L2 8ZM5 8L5 9L8 9L8 8ZM3 10L3 11L2 11L2 12L3 12L3 11L4 11L4 10ZM9 11L9 12L10 12L10 11ZM13 11L13 13L14 13L14 14L15 14L15 15L17 15L17 16L18 16L18 17L19 17L19 16L18 16L18 15L19 15L19 14L18 14L18 15L17 15L17 14L16 14L16 11ZM18 11L18 12L21 12L21 11ZM12 15L12 16L11 16L11 19L10 19L10 20L11 20L11 19L12 19L12 18L13 18L13 17L12 17L12 16L14 16L14 15ZM17 18L17 19L19 19L19 18ZM0 0L0 7L7 7L7 0ZM1 1L1 6L6 6L6 1ZM2 2L2 5L5 5L5 2ZM14 0L14 7L21 7L21 0ZM15 1L15 6L20 6L20 1ZM16 2L16 5L19 5L19 2ZM0 14L0 21L7 21L7 14ZM1 15L1 20L6 20L6 15ZM2 16L2 19L5 19L5 16Z" fill="#000000"/></g></g></svg>
