<?xml version="1.0" encoding="UTF-8"?>
<svg xmlns="http://www.w3.org/2000/svg" version="1.1" width="300" height="300" viewBox="0 0 300 300"><rect x="0" y="0" width="300" height="300" fill="#ffffff"/><g transform="scale(14.286)"><g transform="translate(0,0)"><path fill-rule="evenodd" d="M8 0L8 1L9 1L9 2L8 2L8 5L12 5L12 3L13 3L13 0L12 0L12 3L11 3L11 2L10 2L10 0ZM9 2L9 4L11 4L11 3L10 3L10 2ZM8 6L8 7L9 7L9 8L8 8L8 10L6 10L6 9L7 9L7 8L6 8L6 9L4 9L4 8L0 8L0 10L1 10L1 9L4 9L4 10L2 10L2 11L3 11L3 12L2 12L2 13L3 13L3 12L4 12L4 11L5 11L5 12L6 12L6 13L7 13L7 12L8 12L8 10L9 10L9 11L10 11L10 9L11 9L11 11L12 11L12 9L11 9L11 6L10 6L10 7L9 7L9 6ZM12 6L12 8L13 8L13 10L14 10L14 11L15 11L15 12L14 12L14 14L15 14L15 16L16 16L16 17L15 17L15 18L14 18L14 16L13 16L13 15L12 15L12 14L13 14L13 12L9 12L9 13L8 13L8 14L9 14L9 17L8 17L8 21L9 21L9 20L10 20L10 21L11 21L11 20L12 20L12 21L13 21L13 20L12 20L12 19L14 19L14 21L15 21L15 19L16 19L16 21L17 21L17 19L18 19L18 17L19 17L19 18L20 18L20 16L21 16L21 15L20 15L20 16L19 16L19 14L21 14L21 8L20 8L20 9L19 9L19 8L16 8L16 10L17 10L17 11L15 11L15 10L14 10L14 8L13 8L13 6ZM9 8L9 9L10 9L10 8ZM5 10L5 11L6 11L6 12L7 12L7 11L6 11L6 10ZM19 10L19 11L17 11L17 12L16 12L16 13L15 13L15 14L16 14L16 13L17 13L17 14L19 14L19 12L20 12L20 10ZM0 11L0 12L1 12L1 11ZM17 12L17 13L18 13L18 12ZM10 14L10 15L11 15L11 14ZM16 15L16 16L17 16L17 17L16 17L16 19L17 19L17 17L18 17L18 15ZM10 16L10 17L9 17L9 18L12 18L12 17L13 17L13 16ZM10 19L10 20L11 20L11 19ZM20 19L20 20L21 20L21 19ZM18 20L18 21L19 21L19 20ZM0 0L0 7L7 7L7 0ZM1 1L1 6L6 6L6 1ZM2 2L2 5L5 5L5 2ZM14 0L14 7L21 7L21 0ZM15 1L15 6L20 6L20 1ZM16 2L16 5L19 5L19 2ZM0 14L0 21L7 21L7 14ZM1 15L1 20L6 20L6 15ZM2 16L2 19L5 19L5 16Z" fill="#000000"/></g></g></svg>
